<svg xmlns="http://www.w3.org/2000/svg" viewBox="0 0 48 48"><path d="M 18 0 L 18 0.03515625 C 16.208014 0.12528875 15.293676 0.51553285 14.412109 2.0351562 C 6.3517352 2.4149235 2 10.42841 2 18 C 2 19.204578 2.1292184 29.434979 7.0839844 31.599609 C 7.9161226 39.6483 14.872508 48 23.990234 48 C 32.70035 48 39.438885 40.354921 40.75 32.644531 C 45.847623 30.493248 46 19.304259 46 18 A 18.758 18.758 0 0 0 44.931641 11.666016 L 43.048828 12.339844 A 16.752 16.752 0 0 1 44 18 C 44 20.605586 43.408796 27.547677 40.996094 30.064453 C 40.996231 30.04308 40.999955 30.02136 41 30 L 41 21.998047 L 41 21 L 40.960938 21 C 40.567341 14.851437 36.600189 8.3443604 30.619141 4.1777344 L 29.476562 5.8183594 C 34.05062 9.0063628 37.336873 13.643885 38.515625 18.3125 C 37.578351 17.771401 36.464893 17.349719 35.310547 16.980469 L 34.699219 18.880859 C 38.463284 20.086318 38.997771 21.092496 39 22 L 39 30 C 38.984 37.4 32.433234 46 23.990234 46 C 15.547234 46 9 37.4 9 30 L 9 23 L 7 23 L 7 29.169922 C 4.8298424 27.151222 4.1503966 21.932208 4.0292969 18.984375 C 5.4543801 12.35343 11.625612 8.9086003 14.628906 7.5996094 A 12.6 12.6 0 0 0 15.904297 10.345703 C 15.59627 11.402375 14.865562 11.828484 13.539062 12.521484 A 9.241 9.241 0 0 0 9.1171875 16.529297 A 22.555 22.555 0 0 0 7.3613281 20.728516 L 9.2871094 21.271484 A 20.533 20.533 0 0 1 10.882812 17.472656 A 7.344 7.344 0 0 1 14.464844 14.294922 C 15.455392 13.776799 16.525587 13.200014 17.242188 12.126953 A 12.6 12.6 0 0 0 23.740234 15.964844 C 25.542234 16.455844 27.219859 16.882484 28.755859 17.271484 L 29.246094 15.335938 C 27.721094 14.946938 26.056578 14.522156 24.267578 14.035156 C 15.931578 11.762156 15.936 4.5145313 16 3.2695312 C 16.515519 2.2465489 16.787781 2.0543255 18.53125 2.015625 A 19.788 19.788 0 0 1 27.984375 4.8613281 L 29 3.1386719 A 21.783 21.783 0 0 0 26.978516 2.0820312 C 36.186393 2.6879273 40.351314 6.8879595 42.228516 10.460938 L 44 9.53125 C 41.717 5.18325 36.513922 0 24.669922 0 L 20.009766 0 C 19.387862 5.1952701e-17 18.925238 0.013553626 18.441406 0.02734375 A 21.783 21.783 0 0 0 18 0 z M 14.009766 4.0625 A 12.6 12.6 0 0 0 14.152344 5.6269531 C 11.926685 6.5364899 7.7814007 8.61963 4.8613281 12.505859 C 6.2628954 8.1237374 9.3691337 4.517063 14.009766 4.0625 z M 31.251953 15.837891 L 30.751953 17.775391 C 31.451953 17.954724 32.113615 18.130115 32.738281 18.300781 L 33.269531 16.371094 C 32.632865 16.197094 31.96062 16.019891 31.251953 15.837891 z M 11 23 A 5.006 5.006 0 0 0 16 28 A 5.006 5.006 0 0 0 21 23 L 19 23 A 3 3 0 0 1 13 23 L 11 23 z M 27 23 A 5.006 5.006 0 0 0 32 28 A 5.006 5.006 0 0 0 37 23 L 35 23 A 3 3 0 0 1 29 23 L 27 23 z M 23 26 L 23 34 L 25 34 L 25 26 L 23 26 z M 11.945312 32.673828 L 10.054688 33.326172 C 10.166688 33.657505 10.290495 33.985214 10.423828 34.310547 L 12.277344 33.5625 C 12.159344 33.2745 12.045312 32.973828 11.945312 32.673828 z M 36.039062 32.722656 C 35.953063 33.022656 35.853906 33.328047 35.753906 33.623047 L 37.640625 34.283203 C 37.755958 33.952536 37.862937 33.616724 37.960938 33.275391 L 36.039062 32.722656 z M 13.097656 35.322266 L 11.328125 36.257812 A 20.177 20.177 0 0 0 12.417969 38.082031 L 14.078125 36.970703 A 18.388 18.388 0 0 1 13.097656 35.322266 z M 35.023438 35.384766 A 15.744 15.744 0 0 1 34.089844 37.039062 L 35.769531 38.126953 A 17.663 17.663 0 0 0 36.822266 36.257812 L 35.023438 35.384766 z M 15.226562 38.5 L 13.699219 39.789062 A 17.468 17.468 0 0 0 15.183594 41.337891 L 16.537109 39.873047 A 15.6 15.6 0 0 1 15.226562 38.5 z M 32.960938 38.560547 A 14.116 14.116 0 0 1 31.646484 39.912109 L 32.982422 41.400391 A 15.712 15.712 0 0 0 34.486328 39.851562 L 32.960938 38.560547 z M 18 41.052734 L 16.859375 42.695312 A 13.843 13.843 0 0 0 18.738281 43.800781 L 19.609375 42 A 11.723 11.723 0 0 1 18 41.052734 z M 30.164062 41.0625 A 12.027 12.027 0 0 1 28.535156 41.970703 L 29.369141 43.787109 A 14.358 14.358 0 0 0 31.269531 42.730469 L 30.164062 41.0625 z M 26.789062 42.599609 A 11.085 11.085 0 0 1 24.970703 42.943359 L 25.171875 44.933594 A 13.4 13.4 0 0 0 27.318359 44.529297 L 26.789062 42.599609 z M 21.332031 42.650391 L 20.792969 44.576172 A 11.337 11.337 0 0 0 22.970703 44.966797 L 23.126953 42.972656 A 9.31 9.31 0 0 1 21.332031 42.650391 z"></path></svg>