<svg xmlns="http://www.w3.org/2000/svg" viewBox="0 0 50 50"><path fill="#D09015" d="M 5.3515625 9.09375 A 1.0001 1.0001 0 0 0 4.7304688 9.3085938 C 2.734122 10.832021 1.6102393 12.770209 1.1621094 14.826172 C 0.71397935 16.882134 0.90320449 19.037601 1.375 21.15625 A 1.0005497 1.0005497 0 1 0 3.328125 20.720703 C 2.8949205 18.775352 2.7553643 16.902991 3.1152344 15.251953 C 3.4751044 13.600916 4.2967062 12.155009 5.9433594 10.898438 A 1.0001 1.0001 0 0 0 5.3515625 9.09375 z M 44.517578 9.15625 A 1.0001 1.0001 0 0 0 43.912109 10.978516 C 45.597597 12.182629 46.465296 13.603127 46.876953 15.242188 C 47.288611 16.881245 47.207405 18.757002 46.835938 20.714844 A 1.0001 1.0001 0 1 0 48.800781 21.087891 C 49.205318 18.955732 49.328994 16.794848 48.816406 14.753906 C 48.303814 12.712965 47.119684 10.809496 45.076172 9.3496094 A 1.0001 1.0001 0 0 0 44.517578 9.15625 z M 7.3359375 16 A 1.0001 1.0001 0 0 0 6.328125 16.816406 C 6.122512 17.916856 6 19.055484 6 20.230469 C 6 30.590974 14.525452 39 25 39 C 35.474548 39 44 30.590974 44 20.230469 C 44 19.055484 43.877488 17.916856 43.671875 16.816406 A 1.0001 1.0001 0 0 0 42.46875 16.023438 C 30.746322 18.64764 19.111506 18.65516 7.5332031 16.025391 A 1.0001 1.0001 0 0 0 7.3359375 16 z M 41.800781 18.162109 C 41.891227 18.846982 42 19.527885 42 20.230469 C 42 20.895832 41.949214 21.54829 41.873047 22.193359 C 40.587421 22.480682 39.301981 22.734156 38.015625 22.955078 L 38.080078 18.853516 C 39.319966 18.650652 40.559899 18.42292 41.800781 18.162109 z M 8.1992188 18.164062 C 9.4917816 18.43919 10.785359 18.682063 12.080078 18.892578 L 12.015625 22.947266 C 10.719541 22.726615 9.4228177 22.475249 8.125 22.189453 C 8.0491552 21.54572 8 20.894403 8 20.230469 C 8 19.528542 8.1089327 18.848311 8.1992188 18.164062 z M 36.076172 19.136719 L 36.011719 23.273438 C 34.676117 23.467046 33.340552 23.623704 32.003906 23.746094 L 32.068359 19.591797 C 33.403502 19.473399 34.739672 19.321956 36.076172 19.136719 z M 14.074219 19.166016 C 15.411009 19.349169 16.749054 19.498194 18.087891 19.613281 L 18.087891 23.744141 C 16.729905 23.619793 15.371399 23.458169 14.011719 23.261719 L 14.074219 19.166016 z M 30.066406 19.765625 L 30.001953 23.902344 C 28.697897 23.987114 27.393185 24.039299 26.087891 24.056641 L 26.087891 19.923828 C 27.413386 19.904713 28.739366 19.850283 30.066406 19.765625 z M 20.087891 19.785156 C 21.420488 19.8661 22.753517 19.913426 24.087891 19.927734 L 24.087891 24.058594 C 22.755485 24.041229 21.421722 23.987702 20.087891 23.900391 L 20.087891 19.785156 z M 8.5292969 24.324219 C 19.542029 26.633103 30.533091 26.651416 41.46875 24.328125 C 40.932012 26.437466 39.99621 28.383556 38.736328 30.089844 L 38.722656 30.039062 C 29.601225 32.667338 20.479253 32.64606 11.273438 30.037109 L 11.259766 30.085938 C 10.000692 28.379581 9.0653953 26.433334 8.5292969 24.324219 z M 13.654297 32.701172 C 15.10322 33.028332 16.551385 33.273662 18 33.476562 L 18 35.490234 C 16.408203 34.775047 14.939365 33.839438 13.654297 32.701172 z M 36.333984 32.712891 C 35.051603 33.846546 33.587263 34.779393 32 35.492188 L 32 33.488281 C 33.446061 33.28657 34.890926 33.041431 36.333984 32.712891 z M 20 33.722656 C 21.333499 33.856668 22.667527 33.93482 24 33.962891 L 24 36.953125 C 22.613837 36.873034 21.274894 36.635169 20 36.246094 L 20 33.722656 z M 30 33.730469 L 30 36.246094 C 28.724989 36.635052 27.386206 36.873079 26 36.953125 L 26 33.964844 C 27.334124 33.9397 28.667652 33.862507 30 33.730469 z"></path></svg>