<svg xmlns="http://www.w3.org/2000/svg" viewBox="0 0 64 64"><path fill="#D09015" d="M 25.630859 5.9980469 A 1.0002103 1.0002103 0 0 0 25.470703 6.0097656 C 21.436467 6.0563697 17.940336 7.0385802 15.150391 8.8027344 A 1.0001 1.0001 0 0 0 15.117188 10.470703 C 16.556838 11.463217 17.5 13.113984 17.5 15 C 17.5 18.04961 15.04961 20.5 12 20.5 C 11.114732 20.5 10.283776 20.286166 9.5390625 19.912109 A 1.0001 1.0001 0 0 0 8.09375 20.710938 C 8.0340986 21.332567 8 21.968573 8 22.625 C 8 26.204738 9.3391946 28.991234 10.828125 31.621094 C 12.317055 34.250954 13.952591 36.76363 14.847656 39.976562 C 15.875676 43.761071 16.605165 48.081416 17.728516 51.552734 C 18.290481 53.289289 18.943531 54.823783 19.873047 56.001953 C 20.802563 57.180123 22.114558 58 23.669922 58 C 25.20524 58 26.595358 57.435541 27.513672 56.339844 C 28.431986 55.244146 28.859375 53.7201 28.859375 51.896484 C 28.859375 47.349168 29.788275 41.345663 30.726562 36.160156 C 30.896549 35.359575 31.443092 35.082031 32.037109 35.082031 C 32.632455 35.082031 33.132151 35.32856 33.265625 36.123047 A 1.0001 1.0001 0 0 0 33.269531 36.140625 C 34.208113 41.220714 35.138672 47.342586 35.138672 51.896484 C 35.138672 53.7202 35.565963 55.24422 36.484375 56.339844 C 37.402793 57.435466 38.793221 58 40.328125 58 C 41.887226 58 43.198551 57.170516 44.126953 55.984375 C 45.055356 54.798234 45.709791 53.254214 46.271484 51.511719 C 47.39487 48.026729 48.124182 43.704638 49.152344 39.974609 C 50.047577 36.7624 51.683357 34.248272 53.171875 31.619141 C 54.660211 28.990331 55.997002 26.206165 55.998047 22.628906 C 56.051247 17.764458 54.380035 13.558426 51.289062 10.611328 C 48.196383 7.6626036 43.730528 6 38.339844 6 C 35.976626 6 33.89212 6.3135189 32.050781 6.9140625 C 30.209857 6.3139047 28.128097 6 25.765625 6 C 25.75369 6 25.742395 6.0019368 25.730469 6.0019531 A 1.0001 1.0001 0 0 0 25.630859 5.9980469 z M 38.339844 8 C 43.32216 8 47.237883 9.5145214 49.908203 12.060547 C 52.578524 14.606572 54.049868 18.210145 54 22.613281 A 1.0001 1.0001 0 0 0 53.998047 22.625 C 53.998047 25.711725 52.874771 28.082352 51.429688 30.634766 C 49.984603 33.18718 48.215533 35.8819 47.224609 39.439453 A 1.0001 1.0001 0 0 0 47.224609 39.441406 C 46.156771 43.315378 45.41805 47.638426 44.367188 50.898438 C 43.841755 52.528442 43.232113 53.883969 42.552734 54.751953 C 41.873403 55.619889 41.231524 56 40.328125 56 C 39.244029 56 38.539916 55.677813 38.017578 55.054688 C 37.49524 54.431562 37.138672 53.405769 37.138672 51.896484 C 37.138672 47.079528 36.184704 40.917627 35.238281 35.792969 C 34.951755 34.087455 33.458764 33.082031 32.037109 33.082031 C 30.615455 33.082031 29.122907 34.056682 28.767578 35.751953 A 1.0001 1.0001 0 0 0 28.761719 35.779297 C 27.815394 41.006663 26.859375 47.074383 26.859375 51.896484 C 26.859375 53.405869 26.502655 54.431635 25.980469 55.054688 C 25.458324 55.677743 24.754604 56 23.669922 56 C 22.763286 56 22.1215 55.623221 21.443359 54.763672 C 20.765219 53.904123 20.156019 52.56032 19.630859 50.9375 C 18.58054 47.69186 17.841531 43.368405 16.775391 39.445312 A 1.0001 1.0001 0 0 0 16.773438 39.439453 C 15.78255 35.882427 14.013429 33.187156 12.568359 30.634766 C 11.12329 28.082376 10 25.712262 10 22.625 C 10 22.423175 10.022227 22.230103 10.029297 22.03125 C 10.678885 22.217121 11.291006 22.5 12 22.5 C 16.13039 22.5 19.5 19.13039 19.5 15 C 19.5 13.023077 18.57649 11.361035 17.320312 10.019531 C 19.624499 8.8123835 22.349445 8.0241593 25.638672 8.0039062 C 29.762887 8.3098988 33.365804 10.157552 35.908203 13.074219 A 1.0001608 1.0001608 0 0 0 37.416016 11.759766 C 36.311429 10.492571 35.024828 9.4055508 33.599609 8.5234375 C 34.982725 8.1806356 36.56067 8 38.339844 8 z M 45.121094 12.492188 A 1.0001 1.0001 0 0 0 44.652344 14.378906 C 45.404379 14.783362 46.05923 15.268965 46.617188 15.833984 L 46.617188 15.835938 C 48.186194 17.422554 49.032719 19.696628 49 22.613281 L 48.998047 22.619141 L 48.998047 22.625 C 48.998047 24.540196 48.310594 26.01307 46.888672 28.503906 A 1.0001 1.0001 0 1 0 48.625 29.496094 C 50.077786 26.951193 50.994462 25.038639 50.996094 22.630859 C 51.031994 19.310288 50.034701 16.445749 48.041016 14.429688 C 47.334972 13.714707 46.513574 13.110684 45.599609 12.619141 A 1.0001 1.0001 0 0 0 45.121094 12.492188 z M 45.705078 31.488281 A 1.0001 1.0001 0 0 0 44.855469 32.052734 C 44.206617 33.350437 43.822614 34.373937 43.285156 35.597656 A 1.0004829 1.0004829 0 1 0 45.117188 36.402344 C 45.677729 35.126063 46.043383 34.149563 46.644531 32.947266 A 1.0001 1.0001 0 0 0 45.705078 31.488281 z"></path></svg>