<svg xmlns="http://www.w3.org/2000/svg" viewBox="0 0 512 512"><g><g><path fill="#D09015" d="M355.99,166a90.815,90.815,0,1,1-1.26.02C355.15,166,355.57,166,355.99,166Z"></path><path fill="#ffffff" d="M341.61,110.36c12.69,12.69,16.68,32.33,13.12,55.66A90.005,90.005,0,0,0,335.3,343.61,128.132,128.132,0,0,1,286.41,416c-12.46-60.97-41.52-103.73-75.42-103.73S148.03,355.03,135.57,416a128.2,128.2,0,0,1-40.1-159.06,22.245,22.245,0,0,0,2.22-9.68,22.278,22.278,0,0,0-3.12-11.4c-31.01-52.04-38.35-101.34-14.2-125.5,21.31-21.3,62.18-18.09,107.25,4.24a52.744,52.744,0,0,0,46.74,0C279.43,92.27,320.3,89.06,341.61,110.36Z" data-name="<Group>"></path></g><g data-name="<Group>"><path fill="#083863" d="M90.144,243.179a15.625,15.625,0,0,1,.546,4.081,15.334,15.334,0,0,1-1.528,6.644,133.911,133.911,0,0,0-13.3,58.536,135.574,135.574,0,0,0,55.588,109.218,7,7,0,0,0,10.981-4.257c12-58.695,39.548-98.131,68.561-98.131s56.567,39.436,68.562,98.131a7,7,0,0,0,10.98,4.256,135.384,135.384,0,0,0,49.777-69.931,97,97,0,1,0,22.256-192.5c1.949-22.811-3.506-41.318-16.006-53.819-11.714-11.708-29-17.334-50.016-16.282-19.323.973-41.9,7.612-65.289,19.2a45.922,45.922,0,0,1-40.526,0c-23.391-11.589-45.968-18.228-65.291-19.2-21.007-1.053-38.3,4.574-50.018,16.284-25.788,25.8-20.754,77.157,13.13,134.018A15.525,15.525,0,0,1,90.144,243.179ZM438.99,256a82.992,82.992,0,0,1-147.783,51.894A82.989,82.989,0,0,1,354.824,173.02c.08,0,.16,0,.239-.008.228-.011.456-.012.683-.012h.244A83.093,83.093,0,0,1,438.99,256ZM85.318,115.311c18.257-18.246,55.337-16.167,99.2,5.562a60,60,0,0,0,52.954,0c43.855-21.729,80.936-23.809,99.192-5.563,11.83,11.83,13.274,29.524,11.86,43.989a97,97,0,0,0-68.234,157.354,97.549,97.549,0,0,0,46.362,31.811,121.254,121.254,0,0,1-35.861,55.082c-6.518-26.578-16.23-49.349-28.348-66.339-14.9-20.894-32.692-31.937-51.449-31.937s-36.548,11.043-51.449,31.937c-12.116,16.988-21.828,39.758-28.347,66.334a121.568,121.568,0,0,1-41.334-91.1,120.015,120.015,0,0,1,11.911-52.453,29.3,29.3,0,0,0-1.187-27.711C70.593,181.948,64.6,136.036,85.318,115.311Z" data-name="<Compound Path>"></path><path fill="#083863" d="M316.437,244.545a7,7,0,0,0-10.293,9.49l30.9,33.51a7,7,0,0,0,9.875.416l58.51-53.6a7,7,0,0,0-9.457-10.323l-53.366,48.886Z" data-name="<Path>"></path><path fill="#083863" d="M121,185.5a7,7,0,0,0,7-7v-31a7,7,0,0,0-14,0v31A7,7,0,0,0,121,185.5Z"></path><path fill="#083863" d="M121,223.5a7,7,0,0,0,7-7v-14a7,7,0,0,0-14,0v14A7,7,0,0,0,121,223.5Z"></path></g></g></svg>